<svg xmlns="http://www.w3.org/2000/svg" xmlns:xlink="http://www.w3.org/1999/xlink"><symbol id="icon__arrow_next" viewBox="0 0 101 20"><g fill="none"><path d="M100.53 10.53a.75.75 0 0 0 0-1.06l-4.773-4.773a.75.75 0 0 0-1.06 1.06L98.939 10l-4.242 4.243a.75.75 0 0 0 1.06 1.06l4.773-4.773ZM0 10.75h100v-1.5H0v1.5Z" fill="#F10132"/></g></symbol><symbol id="icon__arrow_prev" viewBox="0 0 51 20"><g fill="none"><path d="M.47 9.47a.75.75 0 0 0 0 1.06l4.773 4.773a.75.75 0 1 0 1.06-1.06L2.061 10l4.242-4.243a.75.75 0 0 0-1.06-1.06L.47 9.47ZM1 10.75h50v-1.5H1v1.5Z" fill="#000"/></g></symbol><symbol id="icon__cup" viewBox="0 0 50 50"><g fill="none"><path d="M21.094 33.078v12.5l-7.422-4.687-7.422 4.687v-12.5" fill="#F10132" fill-opacity=".25"/><path d="M39.063 40.89H24.608v4.688h14.453v-4.687ZM23.443 30.174a10.906 10.906 0 0 0 8.198 3.685 10.92 10.92 0 0 0 10.937-10.937V4.172H20.703v10.155a11.667 11.667 0 0 0-7.031-2.343c-6.472 0-11.719 5.247-11.719 11.72 0 6.471 5.247 11.718 11.719 11.718 4.08 0 7.673-2.085 9.771-5.248Z" fill="#fff"/><path fill-rule="evenodd" clip-rule="evenodd" d="M20.031 4.172c0-.388.284-.672.672-.672h21.875c.388 0 .672.284.672.672v3.234h5.188c.387 0 .671.284.671.672v8.828c0 3.224-2.393 5.913-5.48 6.421l-.388.064-.029.393c-.412 5.619-4.833 10.187-10.446 10.71l-.453.043v5.682h6.75c.387 0 .671.284.671.672v4.687a.651.651 0 0 1-.672.672h-13.28a.651.651 0 0 1-.673-.672c0-.388.284-.672.672-.672h12.61v-3.343H25.78a.651.651 0 0 1-.672-.672c0-.388.284-.672.672-.672h5.227v-5.733l-.466-.032a10.335 10.335 0 0 1-3.166-.745l-.013-.005a.666.666 0 0 1-.375-.87l.004-.01a.666.666 0 0 1 .867-.376c1.194.493 2.47.74 3.782.74 5.666 0 10.265-4.6 10.265-10.266V4.844H21.375v3.234a.651.651 0 0 1-.672.672h-5.86a.651.651 0 0 1-.671-.672c0-.388.284-.672.672-.672h5.187V4.172ZM47.766 8.75H43.25v13.289l.621-.155a5.155 5.155 0 0 0 3.895-5.017V8.75Z" fill="#000"/><path fill-rule="evenodd" clip-rule="evenodd" d="M1.281 23.703c0-6.833 5.558-12.39 12.39-12.39 6.834 0 12.392 5.557 12.392 12.39 0 3.677-1.613 6.945-4.134 9.24l-.163.149v12.486c0 .244-.131.46-.349.569l-.04.02-.036.027c-.037.027-.11.056-.247.056-.11 0-.215-.033-.363-.121l-7.06-4.463-7.063 4.466-.01.007c-.18.119-.414.136-.671.008a.626.626 0 0 1-.349-.569v-8.594c0-.388.284-.672.672-.672.388 0 .672.285.672.672v7.398l6.387-4.081a.699.699 0 0 1 .726 0l6.387 4.036V34.09l-.75.43a12.034 12.034 0 0 1-6 1.575c-6.833 0-12.39-5.558-12.39-12.39Zm12.39-11.047c-6.096 0-11.046 4.95-11.046 11.047S7.575 34.75 13.672 34.75c6.096 0 11.047-4.95 11.047-11.047 0-6.096-4.95-11.047-11.047-11.047Z" fill="#000"/></g></symbol><symbol id="icon__girl" viewBox="0 0 50 50"><g fill="none"><path d="M25 .39c5.234 0 10.156 2.15 13.945 5.977 3.711 3.828 5.782 8.828 5.82 14.102 0 .312-.156.586-.35.82-.196.234-.509.352-.821.352h-3.946c-.502 0-1.927.164-3.73.373l-.488.056-.133.015c-4.854.548-12.667 1.43-19.828 1.43-2.54 0-5-.117-7.227-.39-1.797-.234-3.125-1.914-2.89-3.71C6.602 8.944 15.43.39 25 .39ZM6.367 23.594h37.266c.625 0 1.172.547 1.133 1.172v8.828a8.986 8.986 0 0 1-8.985 8.984H14.18a8.986 8.986 0 0 1-8.985-8.984v-8.828a1.15 1.15 0 0 1 1.172-1.172Z" fill="#F10132" fill-opacity=".25"/><path d="M45.313 24.805c.117-1.328-.586-2.54-1.68-3.164v-.04h-.04a6.2 6.2 0 0 1-5.937-4.374c-1.562-4.961-4.492-8.516-8.437-4.922-1.039.941-1.954 1.951-2.87 2.962-1.67 1.842-3.342 3.686-5.763 5.124-2.795 1.65-6.11 1.267-8.948.94-2.2-.254-4.111-.475-5.27.31a3.365 3.365 0 0 0-1.68 2.93c0 1.913 1.64 3.398 3.515 3.398h2.227c1.512 7.093 5.713 13.19 12.724 14.101h-1.67a6.368 6.368 0 0 1-6.367 6.367v1.172h20.547v-1.172a6.368 6.368 0 0 1-6.367-6.367h-2.451c7.011-.91 11.215-7.01 12.763-14.14h2.227c1.797 0 3.36-1.328 3.477-3.125Z" fill="#fff"/><path d="M28.737 11.852a.669.669 0 0 1 .934.048.67.67 0 0 1-.049.935c-.99.912-1.9 1.861-2.806 2.885l-.118.129c-1.685 1.838-3.374 3.681-5.82 5.127l-.005.003c-1.689 1.028-3.618 1.334-5.482 1.334-1.167 0-2.304-.124-3.325-.235l-.328-.035a.675.675 0 0 1-.578-.73.675.675 0 0 1 .731-.582l.135.014c2.442.268 5.643.619 8.191-.902h.002c2.306-1.392 3.902-3.137 5.553-4.942l.066-.071.005-.007a41.745 41.745 0 0 1 2.894-2.97ZM18.893 46.306a.669.669 0 0 1 .934.047.669.669 0 0 1-.048.935l-.005.005c-1.269 1.196-2.94 1.816-4.657 1.816a.651.651 0 0 1-.672-.671c0-.388.284-.672.672-.672a5.55 5.55 0 0 0 3.776-1.46ZM4.688 23.938a.651.651 0 0 0-.672.671c0 2.168 1.907 4.03 4.185 4.032h.002c1.004 0 1.819.614 2.117 1.56l.003.008C12.738 38.335 18.088 42.86 25 42.86h.011c1.262 0 2.473-.152 3.622-.45.18 3.71 3.28 6.7 7.031 6.7.36 0 .672-.294.672-.672a.651.651 0 0 0-.672-.671c-3.128 0-5.695-2.568-5.695-5.696a.746.746 0 0 0-.004-.08c4.487-1.675 7.914-5.729 9.712-11.78l.002-.009.003-.008c.297-.89 1.138-1.548 2.104-1.552h.01c2.21 0 4.014-1.644 4.19-3.754a.677.677 0 0 0-.625-.716h-.002a.676.676 0 0 0-.72.624v.011l-.001.011c-.145 1.399-1.383 2.474-2.83 2.48h-.011a3.52 3.52 0 0 0-3.388 2.532v.002c-.518 1.73-1.627 4.636-3.72 7.117-2.105 2.495-5.214 4.568-9.689 4.568s-7.584-2.073-9.689-4.568c-2.094-2.48-3.202-5.386-3.72-7.117v-.002a3.52 3.52 0 0 0-3.388-2.532.729.729 0 0 0-.212.03c-1.416-.11-2.632-1.318-2.632-2.718a.651.651 0 0 0-.671-.672Z" fill="#000"/></g></symbol><symbol id="icon__map" viewBox="0 0 50 50"><g fill="none"><path d="m46.484 13.281-7.343-5.86a3.933 3.933 0 0 0-4.883 0l-5.156 4.141a7.908 7.908 0 0 1-4.883 1.72H5.469c-1.094 0-1.953.859-1.953 1.952v31.25c0 1.094.859 1.953 1.953 1.953h18.75a7.758 7.758 0 0 0 4.883-1.718l5.195-4.14a3.933 3.933 0 0 1 4.883 0l7.343 5.858V13.282h-.039Z" fill="#fff"/><path d="m28.703 11.06 5.201-4.145c1.695-1.341 4.053-1.337 5.703-.003l.003.002 7.336 5.854c.17.147.25.324.25.513v35.157a.675.675 0 0 1-.37.598c-.266.1-.536.105-.764-.084l-7.35-5.864v-.001c-1.194-.964-2.865-.973-4.03.004l-5.148 4.172a.674.674 0 0 1-.935-.107.674.674 0 0 1 .104-.94l5.202-4.145c1.695-1.341 4.052-1.337 5.703-.002l.002.001 6.242 4.985V13.587l-7.1-5.656h-.002c-1.193-.964-2.863-.973-4.028.003l-5.187 4.173A.674.674 0 0 1 28.6 12a.674.674 0 0 1 .104-.94ZM2.844 15.234a2.634 2.634 0 0 1 2.625-2.625h18.75c.388 0 .672.284.672.672a.651.651 0 0 1-.672.672H5.469c-.706 0-1.282.575-1.282 1.281v31.25c0 .706.576 1.282 1.282 1.282h18.75c.388 0 .672.284.672.672a.675.675 0 0 1-.672.671H5.469a2.634 2.634 0 0 1-2.625-2.625v-31.25Z" fill="#000"/><path d="M31.523 14.61a11.935 11.935 0 0 1-3.593 1.953 7.85 7.85 0 0 0-1.328 2.343c-.704 1.836 1.25 6.875 3.632 6.875 1.945 0 3.237-2.531 4.15-4.32.499-.978.884-1.734 1.202-1.734.385 0 .906.794 1.517 1.727.318.485.661 1.008 1.022 1.476.703.937 1.797 1.445 2.969 1.445h1.484v-8.672c0-.351-.156-.703-.43-.898l-4.687-3.75c-.43-.352-1.055-.352-1.445 0l-4.493 3.554ZM21.115 30.372c.518-.143 1.183-.326 1.698-.84 0 0 1.093-2.11 3.164-1.368 2.137.817 1.821 1.103.497 2.303-.322.292-.703.637-1.122 1.056-.935.935-1.13 1.345-1.246 1.586-.15.315-.164.346-1.489.875-1.55.62-1.648-.228-1.762-1.213-.059-.505-.121-1.046-.386-1.443-.439-.657-.016-.774.646-.956ZM35.781 36.133c-1.914.898-7.656-3.75-6.562-5.274.606-.836 1.638-.62 2.687-.401.911.19 1.836.384 2.508-.106 5.195-3.516 6.719-1.25 6.719-.079 0 1.172-2.11 4.336-5.352 5.86ZM19.531 23.71c.625 1.134.274 3.048-.976 4.298-.305.295-.653.586-1.005.88-1.136.95-2.309 1.93-2.16 3.182.047.416.567.73 1.234 1.13 1.59.957 4.012 2.416 2.83 6.956-.227.869-.71 1.7-1.13 2.425l-.043.075a4.95 4.95 0 0 1-1.484 1.64l-.352.235H8.594a1.15 1.15 0 0 1-1.172-1.172V32.5c.664.039 1.328-.156 1.797-.625 1.21-1.211 2.617-3.633 2.89-5.977.47-3.945 5.352-5.898 7.422-2.187Z" fill="#F10132" fill-opacity=".25"/></g></symbol><symbol id="icon__menu" viewBox="0 0 30 30"><g fill="none"><path d="M4 8a1 1 0 0 1 1-1h15a1 1 0 1 1 0 2H5a1 1 0 0 1-1-1ZM4 15a1 1 0 0 1 1-1h20a1 1 0 1 1 0 2H5a1 1 0 0 1-1-1ZM5 21a1 1 0 1 0 0 2h10a1 1 0 1 0 0-2H5Z" fill="#000"/></g></symbol><symbol id="icon__phone" viewBox="0 0 30 30"><g fill="none"><path d="M21.094 29.063H8.906a2.35 2.35 0 0 1-2.344-2.344V3.28A2.35 2.35 0 0 1 8.906.937h12.188a2.35 2.35 0 0 1 2.343 2.344V26.72a2.35 2.35 0 0 1-2.343 2.343Z" fill="#F10132" fill-opacity=".25"/><path d="M7.969 14.438a.69.69 0 0 1-.703-.704V3.281c0-.914.726-1.64 1.64-1.64a.69.69 0 0 1 .703.703.69.69 0 0 1-.703.703c-.14 0-.234.094-.234.234v10.453a.705.705 0 0 1-.703.704Zm0 9.093a.69.69 0 0 1-.703-.703v-.984a.69.69 0 0 1 .703-.703.69.69 0 0 1 .703.703v.984a.69.69 0 0 1-.703.703Z" fill="#fff"/><path d="M21.094.234H8.906A3.04 3.04 0 0 0 5.86 3.281V26.72a3.04 3.04 0 0 0 3.047 3.047h12.188a3.04 3.04 0 0 0 3.047-3.047V3.28A3.04 3.04 0 0 0 21.094.234Zm1.64 26.485a1.63 1.63 0 0 1-1.64 1.64H8.906a1.63 1.63 0 0 1-1.64-1.64V3.28c0-.914.726-1.64 1.64-1.64h1.875v.703a.69.69 0 0 0 .703.703h7.032a.69.69 0 0 0 .703-.703V1.64h1.875c.914 0 1.64.726 1.64 1.64V26.72Z" fill="#000"/></g></symbol><symbol id="icon__plus" viewBox="0 0 35 35"><g fill="none"><path d="M4.578 17.5c0-7.137 5.785-12.922 12.922-12.922 7.137 0 12.922 5.785 12.922 12.922 0 7.137-5.785 12.922-12.922 12.922-7.137 0-12.922-5.785-12.922-12.922Z" fill="#fff" stroke="#000" stroke-width="1.5"/><path d="M16.68 21.602c0 .464.355.82.82.82.465 0 .82-.356.82-.82V18.32h3.282c.464 0 .82-.355.82-.82a.806.806 0 0 0-.82-.82H18.32v-3.282a.806.806 0 0 0-.82-.82.806.806 0 0 0-.82.82v3.282h-3.282a.806.806 0 0 0-.82.82c0 .465.356.82.82.82h3.282v3.282Z" fill="#F10132"/></g></symbol><symbol id="icon__podium" viewBox="0 0 50 50"><g fill="none"><path d="M34.766 13.281H15.234V25H3.516v19.531h42.968V32.813H34.766V13.28Z" fill="#F10132" fill-opacity=".13"/><path d="M19.14 13.281h-3.906v31.25h3.907v-31.25ZM6.25 25H3.516v19.531H6.25V25Z" fill="#fff"/><path d="M34.766 13.281h-3.907v31.25h7.813V32.813h-3.906V13.28ZM11.328 25h3.906v19.531h-3.906V25Z" fill="#F10132" fill-opacity=".12"/><path d="M14.563 13.281c0-.37.3-.672.671-.672h19.532c.37 0 .672.301.672.672V43.36a.5.5 0 0 0 .5.5h9.374a.5.5 0 0 0 .5-.5v-9.375a.5.5 0 0 0-.5-.5h-6.64a.672.672 0 1 1 0-1.343h7.812c.371 0 .672.3.672.672v10.546a.5.5 0 0 0 .5.5h.782a.672.672 0 1 1 0 1.344H1.562a.672.672 0 1 1 0-1.344h.782a.5.5 0 0 0 .5-.5V25c0-.371.3-.672.672-.672h7.812a.672.672 0 1 1 0 1.344h-6.64a.5.5 0 0 0-.5.5v17.187a.5.5 0 0 0 .5.5h28.906a.5.5 0 0 0 .5-.5V14.453a.5.5 0 0 0-.5-.5H16.406a.5.5 0 0 0-.5.5V36.72a.672.672 0 0 1-1.344 0V13.28Z" fill="#000"/><path d="M24.328 28.555c0-.37.244-.658.541-.722a.67.67 0 0 1 .803.644v5.468c0 .476-.384.771-.803.683l-.017-.004-.016-.002c-.252-.036-.508-.327-.508-.677v-2.804h-1.242c-.364 0-.65-.237-.72-.53-.062-.447.265-.814.68-.814h.04c.65 0 1.242-.52 1.242-1.242Z" fill="#000"/></g></symbol><symbol id="icon__prize" viewBox="0 0 50 50"><g fill="none"><path d="m29.063 17.5-1.016 2.617-6.914-2.5L11.64 43.75a5.544 5.544 0 0 1 7.343 2.656l6.133-16.875 6.094 16.758c1.289-2.773 4.57-3.945 7.344-2.656L29.063 17.5Z" fill="#fff"/><path d="M28.808 16.874c.368-.138.726.046.832.385l.238 4.509-1.479-4.049-.001-.004c-.138-.368.045-.726.384-.831l.013-.005.013-.005Z" fill="#000"/><path d="m29.879 21.769-.24-4.51.004.01 9.536 26.144a.66.66 0 0 1-.175.706.7.7 0 0 1-.749.114 4.84 4.84 0 0 0-6.443 2.353l-.009.02-.007.02c-.076.21-.3.373-.582.374l-.165-3.121.309.845.553-.537c1.262-1.226 2.997-1.844 4.777-1.735l.762.047-7.571-20.73Z" fill="#000"/><path d="m31.046 43.87-1.168-22.102v.001l1.17 22.11-.002-.008Z" fill="#000"/><path d="M31.046 43.87 31.21 47h-.016c-.3-.031-.524-.2-.603-.44l-2.778-7.668-.002-.005c-.138-.368.045-.726.384-.832.413-.129.76.063.858.375l.004.012 1.988 5.429Z" fill="#000"/><path fill-rule="evenodd" clip-rule="evenodd" d="M20.9 17.022a.689.689 0 0 1 .526-.03l7.305 2.656h.002c.384.146.533.528.412.83l-.003.007-9.534 26.141c-.083.229-.327.422-.608.452h-.016a.676.676 0 0 1-.604-.382 4.84 4.84 0 0 0-6.44-2.346.7.7 0 0 1-.748-.114.66.66 0 0 1-.175-.706l9.526-26.118c.09-.207.208-.333.336-.381l.01-.004.011-.005Zm6.733 3.656-6.096-2.217-8.774 24.11h1.182c.732 0 1.454.11 2.132.36l.009.002a5.8 5.8 0 0 1 2.193 1.366l.555.555 8.8-24.176Z" fill="#000"/><path d="m40.39 17.852-1.445-2.11a1.09 1.09 0 0 1-.234-.703l-.078-2.539c-.04-1.484-1.016-2.812-2.422-3.32l-2.383-.86a1.277 1.277 0 0 1-.586-.43L31.68 5.86a3.631 3.631 0 0 0-3.907-1.25l-2.421.703a1.204 1.204 0 0 1-.743 0l-2.422-.704a3.631 3.631 0 0 0-3.906 1.25L16.72 7.891a1.277 1.277 0 0 1-.586.43l-2.383.859c-1.406.508-2.383 1.836-2.422 3.32l-.078 2.54c0 .234-.078.468-.234.702l-1.446 2.11a3.585 3.585 0 0 0 0 4.101l1.446 2.11c.156.195.234.43.234.703l.078 2.539c.04 1.484 1.016 2.812 2.422 3.32l2.383.86c.234.078.43.234.586.43l1.562 2.03a3.703 3.703 0 0 0 2.89 1.407 3.06 3.06 0 0 0 1.017-.157l2.421-.703c.235-.078.508-.078.743 0l2.421.703a3.631 3.631 0 0 0 3.907-1.25l1.562-2.03c.156-.196.352-.352.586-.43l2.383-.86c1.406-.508 2.383-1.836 2.422-3.32l.078-2.54c0-.234.078-.468.234-.702l1.446-2.11c.82-1.21.82-2.851 0-4.101Z" fill="#FBBFCC"/><path d="M25 12.89c-3.867 0-7.031 3.165-7.031 7.032s3.164 7.031 7.031 7.031c3.867 0 7.031-3.164 7.031-7.031 0-3.867-3.164-7.031-7.031-7.031Z" fill="#fff"/><path fill-rule="evenodd" clip-rule="evenodd" d="M25 17.297a.651.651 0 0 0-.672.672v3.906c0 .388.284.672.672.672a.651.651 0 0 0 .672-.672v-3.906a.651.651 0 0 0-.672-.672Z" fill="#000"/></g></symbol><symbol id="icon__quote" viewBox="0 0 50 50"><g fill="none"><path d="M14.937 9.497c-3.095-.825-6.189-.619-8.87 1.031-2.682 1.444-4.745 3.92-5.57 6.808-1.857 6.188 1.65 12.583 7.839 14.44 3.3.618 5.157 1.65 5.363 2.475.206.825-.413 2.269-4.126 4.95-.619.413-1.237.826-1.856 1.032-.413.206-.413.619-.206 1.031 0 .207.412.413.618.413 0 0 .207 0 .207-.206.618-.207 1.237-.62 1.856-1.032h.207v-.206c5.982-3.713 10.314-9.489 12.376-16.296.826-3.095.413-6.189-1.031-8.87-1.444-2.682-3.92-4.745-6.807-5.57Zm26.817 0c-6.189-1.857-12.584 1.65-14.44 7.839-1.857 6.188 1.65 12.583 7.838 14.44 3.3.618 5.157 1.65 5.364 2.475.206.825-.413 2.269-4.126 4.95-.619.413-1.238.826-1.856 1.032-.413.206-.413.619-.207 1.031 0 .207.413.413.62.413 0 0 .205 0 .205-.206.825-.207 1.238-.62 1.857-1.032h.206v-.206c5.982-3.713 10.314-9.489 12.377-16.296 1.65-6.189-1.856-12.584-7.838-14.44Z" fill="#F10132" fill-opacity=".25"/></g></symbol><symbol id="icon__sale" viewBox="0 0 76 75"><g fill="none"><path d="M41.047 9.14 43.8 6.798c2.636-2.285 6.797-.938 7.617 2.46l.82 3.516c.528 2.227 2.637 3.75 4.922 3.575l3.574-.293c3.516-.293 6.035 3.222 4.688 6.445l-1.348 3.34c-.879 2.11-.058 4.57 1.875 5.8l3.047 1.876c2.988 1.816 2.988 6.152 0 7.968L65.95 43.36c-1.992 1.23-2.754 3.633-1.875 5.801l1.348 3.34c1.347 3.222-1.23 6.738-4.688 6.445l-3.574-.293c-2.285-.176-4.394 1.348-4.922 3.574l-.82 3.516c-.82 3.398-4.922 4.746-7.617 2.461l-2.754-2.344a4.634 4.634 0 0 0-6.094 0L32.2 68.203c-2.636 2.285-6.797.938-7.617-2.46l-.82-3.517c-.528-2.226-2.637-3.75-4.922-3.574l-3.574.293c-3.516.293-6.036-3.223-4.688-6.445l1.348-3.34c.879-2.11.058-4.57-1.875-5.8l-3.047-1.876c-2.988-1.816-2.988-6.152 0-7.968l3.047-1.875c1.992-1.231 2.754-3.633 1.875-5.801l-1.348-3.34c-1.348-3.223 1.23-6.738 4.688-6.445l3.574.293c2.285.175 4.394-1.348 4.922-3.575l.82-3.515c.82-3.399 4.922-4.746 7.617-2.461l2.754 2.344a4.774 4.774 0 0 0 6.094 0Z" fill="#fff"/><path fill-rule="evenodd" clip-rule="evenodd" d="M24.992 29.883a5.39 5.39 0 1 1 10.781 0 5.39 5.39 0 0 1-10.78 0Zm5.39-1.64a1.64 1.64 0 1 0 0 3.28 1.64 1.64 0 0 0 0-3.28ZM40.227 45.117a5.39 5.39 0 1 1 10.78 0 5.39 5.39 0 0 1-10.78 0Zm5.39-1.64a1.64 1.64 0 1 0 0 3.28 1.64 1.64 0 0 0 0-3.28Z" fill="#000"/><path d="M32.727 43.418c.351.352.761.469 1.171.469.47 0 .996-.176 1.29-.645l12.89-14.59c.645-.703.527-1.816-.176-2.46-.703-.645-1.816-.528-2.46.175L32.55 40.957c-.645.703-.528 1.816.176 2.461ZM27.453 47.461a1.758 1.758 0 1 1 3.516 0 1.758 1.758 0 0 1-3.516 0Z" fill="#000"/><path d="M27.877 6.12c1.452-.428 2.982-.168 4.211.885l2.739 2.33.003.003A5.07 5.07 0 0 0 38 10.526a5.072 5.072 0 0 0 3.17-1.188l.003-.002 2.739-2.331c1.23-1.053 2.76-1.313 4.21-.886 1.57.462 2.628 1.746 2.972 3.208l.818 3.507c.591 2.395 2.743 3.954 5.167 3.776h.002l3.66-.295c1.51-.084 2.965.514 3.882 1.797.845 1.183 1.153 2.783.515 4.264l-1.348 3.341c-.936 2.228-.104 4.792 1.988 6.115l3.033 1.867c1.336.805 2.127 2.235 2.127 3.8 0 1.567-.79 2.996-2.127 3.802l-.003.002-3.03 1.864c-2.092 1.324-2.924 3.888-1.988 6.115l.008.02 1.34 3.322c.638 1.48.33 3.08-.515 4.263-.9 1.262-2.392 1.881-3.92 1.796l-3.622-.293h-.002c-2.424-.178-4.576 1.38-5.167 3.776l-.818 3.507c-.344 1.462-1.402 2.746-2.971 3.207-1.452.427-2.982.168-4.211-.885l-2.74-2.331-.002-.002A5.073 5.073 0 0 0 38 64.474a5.072 5.072 0 0 0-3.17 1.188l-.003.002-2.739 2.331c-1.23 1.053-2.76 1.312-4.211.885-1.569-.461-2.627-1.743-2.97-3.206l-.82-3.508c-.59-2.395-2.742-3.954-5.166-3.776h-.002l-3.623.293c-1.524.094-3.023-.54-3.92-1.796-.844-1.182-1.152-2.782-.514-4.263l1.344-3.332c.94-2.238.05-4.838-1.984-6.125l-3.03-1.864-.003-.002c-1.337-.806-2.127-2.235-2.127-3.801 0-1.566.79-2.996 2.127-3.801l.003-.002 3.03-1.865c2.035-1.287 2.924-3.886 1.984-6.124l-1.344-3.332c-.638-1.48-.33-3.081.515-4.264.916-1.283 2.372-1.881 3.881-1.797l3.66.294h.003c2.424.179 4.575-1.38 5.167-3.775l.818-3.508c.344-1.463 1.402-2.745 2.971-3.207Z" stroke="#F10132" stroke-width="1.5"/></g></symbol><symbol id="icon__social_ig" viewBox="0 0 30 30"><g fill="none"><path d="M20 5H10a5 5 0 0 0-5 5v10a5 5 0 0 0 5 5h10a5 5 0 0 0 5-5V10a5 5 0 0 0-5-5Zm-5 15a5 5 0 1 1 0-10 5 5 0 0 1 0 10Z" fill="#F10132" fill-opacity=".25"/><path d="M19.889 4H10.11A6.118 6.118 0 0 0 4 10.111v9.778A6.118 6.118 0 0 0 10.111 26h9.778A6.118 6.118 0 0 0 26 19.889V10.11A6.118 6.118 0 0 0 19.889 4Zm3.667 15.889a3.671 3.671 0 0 1-3.667 3.667H10.11a3.671 3.671 0 0 1-3.667-3.667V10.11a3.671 3.671 0 0 1 3.667-3.667h9.778a3.671 3.671 0 0 1 3.667 3.667v9.778Z" fill="#000"/><path d="M15 8.889A6.118 6.118 0 0 0 8.889 15 6.118 6.118 0 0 0 15 21.111 6.118 6.118 0 0 0 21.111 15 6.118 6.118 0 0 0 15 8.889Zm0 9.778A3.671 3.671 0 0 1 11.333 15 3.671 3.671 0 0 1 15 11.333 3.671 3.671 0 0 1 18.667 15 3.671 3.671 0 0 1 15 18.667ZM21.111 10.111a1.222 1.222 0 1 0 0-2.444 1.222 1.222 0 0 0 0 2.444Z" fill="#000"/></g></symbol><symbol id="icon__social_vk" viewBox="0 0 30 30"><g fill="none"><path d="M23.605 17.326a9 9 0 0 1 2.16 2.4c.73 1.15-.8 1.25-.8 1.25h-2.91a2.17 2.17 0 0 1-1.46-.43c-1.1-.72-2.15-2.59-3-2.35-.85.24-.8 1.92-.8 1.92a.85.85 0 0 1-.15.58 1.09 1.09 0 0 1-.6.24h-1.271a7.69 7.69 0 0 1-5.47-2.35c-2.781-2.77-5.271-8.301-5.271-8.301s-.1-.35.05-.53c.15-.18.65-.19.65-.19h3.11c.178.029.348.093.5.19.125.104.228.234.3.38.329.793.713 1.561 1.15 2.3 1.31 2.17 1.91 2.68 2.36 2.45.65-.34.45-3.07.45-3.07a2.83 2.83 0 0 0-.3-1.44 1.59 1.59 0 0 0-1-.48c-.18 0 .13-.4.5-.58a7.53 7.53 0 0 1 2.76-.29 6 6 0 0 1 1.561.15c1.08.25.7 1.23.7 3.55 0 .74-.16 1.76.4 2.11.24.15.84 0 2.31-2.35.468-.784.873-1.603 1.21-2.45.073-.135.176-.252.3-.34a1 1 0 0 1 .45-.1h3.321s1-.14 1.16.29c.16.43-.46 1.5-1.76 3.22-2.22 2.82-2.45 2.59-.61 4.22Z" fill="#000"/></g></symbol><symbol id="logo__kolibri" viewBox="0 0 140 50"><g fill="none"><path d="M30.067 5.894a296.864 296.864 0 0 1-2.52-4.644c-2.72 4.748-4.265 9.672-4.424 14.004-4.272-3.144-8.547-3.27-14.613-7.497-.337 7.688 1.553 14.618 5.21 18.627-4.242-.25-8.361.027-13.72.56 6.474 8.276 21.56 14.964 29.897 12.909 5.025-.844 8.853-5.214 8.853-10.478 0-8.279-4.826-16.473-8.683-23.48Z" fill="#F10132"/><path d="M29.168 19.163c-2.641-4.588-5.62-8.176-9.974-13.039-1.52 5.375-1.66 10.323-.547 14.417-4.521-2.883-8.798-4.623-14.897-6.791 2.745 11.76 9.717 20.268 17.38 18.523a272.435 272.435 0 0 1-4.88 11.477c3.57-3.064 5.389-4.078 10.235-6.118 4.846-2.04 7.72-6.287 9.339-10.78 1.618-4.492 2.513-5.835 5.822-6.72 2.345-.628 3.496-.952 5.436-1.498h.004L49 18.096c-2.269.03-3.876.12-5.152.19-2.192.122-3.405.19-5.313-.19-3.555-.772-5.232-.817-7.492 0a7.396 7.396 0 0 0-1.875 1.067Z" fill="#fff"/><path d="M33.75 22.5a1.25 1.25 0 1 0 0-2.5 1.25 1.25 0 0 0 0 2.5Z" fill="#000"/><path fill-rule="evenodd" clip-rule="evenodd" d="m19.94 5.457-1.213-1.354-.495 1.749c-1.287 4.55-1.622 8.85-1.039 12.639-3.907-2.249-7.847-3.813-13.108-5.683l-1.725-.613.416 1.782c1.478 6.331 4.175 11.822 7.629 15.356 2.641 2.703 5.79 4.308 9.156 4.16a271.495 271.495 0 0 1-4.222 9.845 1 1 0 0 0 1.562 1.17c3.473-2.98 5.196-3.944 9.972-5.954 5.197-2.188 8.22-6.721 9.891-11.363.815-2.261 1.394-3.557 2.105-4.411.66-.792 1.492-1.27 3.036-1.682 2.351-.63 3.508-.955 5.45-1.501.558-.157 1.18-.333 1.915-.538a1 1 0 0 0-.283-1.963c-2.293.03-3.933.122-5.211.193-.452.025-.859.047-1.233.064-1.418.063-2.405.042-3.804-.236-3.624-.786-5.519-.871-8.036.038l-.016.006c-.412.157-.81.35-1.197.578-2.552-4.233-5.457-7.71-9.55-12.282Zm4.447 17.97a64.51 64.51 0 0 0-4.871-3.515c-.837-3.358-.818-7.344.181-11.719 3.434 3.888 5.949 7.011 8.181 10.748-.886.804-1.715 1.803-2.513 2.964a30.23 30.23 0 0 0-.977 1.522Zm2.508 2.051a107.46 107.46 0 0 0-.936-.782c.352-.595.703-1.148 1.053-1.657 1.482-2.154 2.895-3.438 4.379-4.006 1.998-.72 3.457-.714 6.932.04l.017.003c.876.175 1.618.26 2.357.292-1.414.453-2.482 1.073-3.364 2.131-.968 1.162-1.647 2.784-2.45 5.015-1.565 4.343-4.292 8.305-8.786 10.196-3.308 1.392-5.257 2.33-7.295 3.752a272.298 272.298 0 0 0 3.067-7.346c.307-.086.616-.188.925-.305 1.151-.437 2.252-1.351 3.062-2.479.815-1.134 1.394-2.565 1.394-4.09v-.464l-.355-.3ZM5.187 15.329c1.48 5.299 3.838 9.731 6.648 12.606 3.105 3.177 6.65 4.37 10.25 3.006.713-.27 1.518-.9 2.147-1.775.534-.744.899-1.606.994-2.479-7.28-6.093-12.062-8.45-20.04-11.358Z" fill="#000"/><path d="M60 34V16.275h3.45V24.7l7.45-8.45h3.8l-6.8 7.875L75.125 34h-3.9L65.7 26.35l-2.25 2.35V34H60ZM82.07 34.25c-1.067 0-2.025-.175-2.875-.525a6.505 6.505 0 0 1-2.175-1.5 6.818 6.818 0 0 1-1.35-2.175 7.062 7.062 0 0 1-.475-2.575c0-.917.158-1.783.475-2.6a6.818 6.818 0 0 1 1.35-2.175 6.212 6.212 0 0 1 2.175-1.475c.85-.367 1.808-.55 2.875-.55 1.066 0 2.016.183 2.85.55.85.35 1.575.842 2.175 1.475.6.633 1.05 1.358 1.35 2.175.316.817.475 1.683.475 2.6 0 .9-.159 1.758-.475 2.575-.3.817-.75 1.542-1.35 2.175a6.238 6.238 0 0 1-2.15 1.5c-.85.35-1.809.525-2.875.525Zm-3.425-6.775c0 .767.15 1.45.45 2.05.3.583.708 1.042 1.225 1.375.516.333 1.1.5 1.75.5.633 0 1.208-.167 1.725-.5.516-.35.925-.817 1.225-1.4.316-.6.475-1.283.475-2.05 0-.75-.159-1.425-.475-2.025-.3-.6-.709-1.067-1.225-1.4a3.115 3.115 0 0 0-1.725-.5c-.65 0-1.234.175-1.75.525-.517.333-.925.8-1.225 1.4-.3.583-.45 1.258-.45 2.025ZM91.656 15.75h3.35V29.8c0 .6.1 1.008.3 1.225.2.2.475.3.825.3.266 0 .541-.033.825-.1.283-.067.533-.15.75-.25l.45 2.55c-.45.217-.975.383-1.575.5a8.59 8.59 0 0 1-1.625.175c-1.05 0-1.867-.275-2.45-.825-.567-.567-.85-1.367-.85-2.4V15.75ZM100.115 34V20.9h3.35V34h-3.35Zm0-14.925V15.75h3.35v3.325h-3.35ZM114.438 34.25c-1 0-1.892-.225-2.675-.675a4.924 4.924 0 0 1-1.85-1.85V34h-2.925V15.75h3.35v7.45a5.241 5.241 0 0 1 1.825-1.85c.766-.45 1.658-.675 2.675-.675.85 0 1.625.183 2.325.55.7.35 1.3.842 1.8 1.475a6.708 6.708 0 0 1 1.175 2.175c.283.817.425 1.692.425 2.625s-.159 1.808-.475 2.625a6.927 6.927 0 0 1-1.275 2.175c-.55.617-1.2 1.1-1.95 1.45-.734.333-1.542.5-2.425.5Zm-.925-2.85c.533 0 1.016-.1 1.45-.3.45-.217.833-.5 1.15-.85.333-.35.583-.758.75-1.225.183-.483.275-.983.275-1.5 0-.717-.15-1.375-.45-1.975a3.63 3.63 0 0 0-1.2-1.475c-.5-.367-1.092-.55-1.775-.55-.484 0-.95.117-1.4.35a4.016 4.016 0 0 0-1.175.9c-.334.383-.6.817-.8 1.3V29.2c.1.333.258.633.475.9.233.267.5.5.8.7.3.183.608.333.925.45.333.1.658.15.975.15ZM131.132 23.8c-1.016 0-1.925.2-2.725.6-.8.383-1.375.942-1.725 1.675V34h-3.35V20.9h3.075v2.8c.467-.9 1.059-1.608 1.775-2.125.717-.517 1.475-.8 2.275-.85h.425c.1 0 .184.008.25.025v3.05ZM133.5 34V20.9h3.35V34h-3.35Zm0-14.925V15.75h3.35v3.325h-3.35Z" fill="#000"/></g></symbol>
</svg>